<svg width="500" height="500" viewBox="0 0 500 500" fill="none" xmlns="http://www.w3.org/2000/svg">
<path d="M383.566 324.672C383.566 324.443 383.566 316.406 383.409 303.891C383.338 298.243 382.321 294.692 381.309 288.784C378.827 274.281 377.276 267.36 376.87 263.961C376.499 260.847 376.074 257.324 375.044 254.383C373.752 250.695 373.16 245.831 373.253 237.646C373.443 220.9 373.899 208.859 374.167 205.856C374.816 198.569 373.843 194.677 372.686 190.803C371.804 187.85 370.358 182.881 368.844 179.052C367.802 176.417 365.193 174.518 362.498 172.413C358.521 169.307 352.697 168.107 349.07 167.331C344.506 166.354 338.263 165.539 329.383 164.093C318.517 162.324 307.318 159.921 303.55 158.991C300.74 158.297 292.651 157.883 287.14 158.616C282.929 159.177 279.286 164.994 276.851 167.005C272.881 170.282 261.974 169.345 254.788 168.339C248.191 167.416 243.798 164.508 239.017 163.682C235.01 162.99 230.968 161.255 227.379 159.248C224.211 157.476 222.297 154.025 221.16 151.055C220.859 150.269 221 149.383 220.667 148.78C219.257 146.229 213.686 145.877 206.296 144.073C187.609 139.511 182.113 137.262 176.053 136.375C168.068 135.207 162.306 136.766 161.388 137.992C159.412 140.632 158.203 147.987 156.202 159.648C152.377 181.939 155.469 184.303 155.483 191.818C155.495 198.507 154.868 211.029 154.835 218.596C154.792 228.398 157.267 234.638 160.136 241.835C162.371 247.44 163.153 251.007 163.386 256.063C163.899 267.179 163.655 277.977 163.75 283.719C163.829 288.514 167.783 292.644 170.296 295.919C173.517 300.114 182.97 302.159 191.48 303.526C199.387 304.796 205.798 306.447 209.771 307.266C215.054 308.356 218.914 307.899 228.303 310.426C237.059 312.782 253.882 317.454 263.326 319.965C274.275 322.876 278.377 323.035 288.669 324.817C296.562 326.184 309.597 329.899 316.997 331.897C325.741 334.257 329.399 335.743 334.125 336.964C338.641 338.131 350.512 339.948 365.646 343.549C376.311 346.086 381.232 343.87 384.843 342.721C389.305 341.303 394.007 340.007 398.32 338.613C399.91 338.099 400.788 336.915 401.784 335.404C403.325 333.068 403.956 330.752 404.188 324.907C404.394 319.727 404.441 310.043 404.848 297.882C405.256 285.722 405.935 271.375 406.166 263.172C406.396 254.969 406.156 253.344 406.032 245.254C405.907 237.164 405.906 222.66 405.868 214.71C405.813 203.328 405.613 199.429 405.814 192.161C405.991 185.775 405.896 173.902 405.867 167.306C405.822 157.259 402.91 150.356 400.284 145.553C398.633 142.535 394.862 140.903 391.974 138.984C389.403 137.275 381.694 135.059 374.497 132.143C369.628 130.17 360.895 130.123 346.146 127.92C337.315 126.601 329.088 125.689 317.335 125.051C304.278 124.342 299.1 120.345 294.861 118.902C291.85 117.877 288.212 116.563 285.836 114.637C281.774 111.343 277.178 101.306 275.044 95.8024C274.404 94.152 273.486 93.0581 272.663 91.9802C271.783 90.8265 270.231 90.0765 265.39 88.7202C254.897 85.7803 245.889 82.869 241.211 82.3911C236.708 81.9311 231.13 81.8212 220.27 81.2489C212.705 80.8502 200.935 81.0543 194.555 81.3235C188.175 81.5927 187.533 82.131 186.948 82.739C183.688 86.1309 181.39 93.8864 179.109 109.829C178.648 124.185 178.096 127.647 178.007 132.293C178.109 133.332 178.321 134.007 178.624 135" stroke="#1D1F22" stroke-width="5" stroke-linecap="round"/>
<path d="M232.421 304.108C230.828 304.69 223.647 308.908 203.732 320.163C188.602 328.714 162.547 341.697 148.437 349.002C132.733 357.133 128.99 359.699 125.457 361.363C120.089 363.891 118.391 332.213 108.184 305.394C104.315 295.225 98.0673 290.069 94.2118 287.253C90.4881 284.533 85.8379 284.273 81.6963 284.169C77.5227 284.065 73.456 286.051 69.3581 289.817C52.7286 305.101 43.2687 338.281 41.1818 346.939C40.783 348.593 41.0379 350.58 41.9695 352.533C49.9288 369.219 83.3819 379.846 91.8126 381.829C93.2376 381.509 94.5989 380.6 95.471 379.429C96.3431 378.258 96.6847 376.853 98.1583 374.296" stroke="#1D1F22" stroke-width="5" stroke-linecap="round"/>
<path d="M306.652 313.465C306.429 315.173 311.112 327.946 328.017 353.597C339.21 370.581 359.407 393.046 369.887 405.475C380.367 417.903 381.463 418.957 381.452 418.941C378.573 414.988 378.203 399.656 380.823 387.555C382.611 379.294 395.39 367.138 409.42 353.066C423.622 338.822 436.173 338.384 450.982 338.56C453.885 338.594 454.88 340.514 455.497 342.209C456.808 345.808 456.092 349.428 455.236 352.325C450.184 369.442 426.663 387.667 424.148 389.4C421.148 391.467 431.684 383.544 442.982 380.835C450.579 379.013 456.317 380.62 458.32 382.285C459.371 383.159 459.153 385.251 458.01 386.808C446.324 392.195 419.636 397.015 394.458 400.999C384.467 402.762 380.133 403.996 374.407 405.959" stroke="#1D1F22" stroke-width="5" stroke-linecap="round"/>
<path d="M150.148 223.614C147.183 225.162 138.522 236.314 133.716 245.43C130.979 250.621 130.847 258.435 130.851 265.397C130.854 270.154 135.778 276.039 146.574 285.276C160.764 297.418 174.916 307.631 181.55 314.341C182.671 315.475 172.615 310.763 161.567 304.436C157.98 302.381 157.727 304.218 158.168 305.662C158.61 307.107 159.559 308.498 160.133 308.269C162.203 307.441 160.674 302.625 160.528 303.677C159.223 313.139 162.519 321.652 161.943 322.952C160.93 325.238 156.248 313.027 152.764 303.127C151.579 299.76 153.519 299.209 156.235 299.479C158.95 299.749 162.879 300.718 166.435 301.268C169.99 301.819 173.053 301.923 176.209 302.029" stroke="#1D1F22" stroke-width="5" stroke-linecap="round"/>
<path d="M373.056 233.381C373.056 233.585 368.913 238.294 349.445 257.007C334.431 271.44 307.743 294.594 291.471 309.533C275.199 324.471 269.833 330.161 267.061 332.167C264.289 334.173 264.273 332.323 264.847 329.01C265.42 325.696 266.583 320.975 266.488 318.289C266.393 315.604 265.004 315.097 263.715 315.271C262.426 315.446 261.279 316.317 260.63 315.999C258.821 315.113 260.221 310.495 261.502 308.701C263.568 305.809 264.697 319.906 264.871 325.847C264.991 329.959 265.865 315.896 267.651 314.867C268.599 314.928 269.631 316.172 270.614 318.169C271.598 320.166 272.502 322.878 273.783 326.818" stroke="#1D1F22" stroke-width="5" stroke-linecap="round"/>
<path d="M221.637 215.923C221.637 216.022 221.637 218.687 222.004 222.679C222.134 224.099 223.105 224.12 223.754 223.845C225.125 223.265 226.406 220.572 227.659 217.608C228.15 216.444 227.79 215.769 227.114 215.447C226.437 215.125 225.312 215.125 224.575 215.451C223.838 215.777 223.523 216.429 223.324 217.487C223.124 218.545 223.05 219.988 223.373 220.629C223.696 221.27 224.418 221.065 224.975 220.693C225.532 220.321 225.901 219.788 225.794 219.307C225.688 218.827 225.094 218.415 223.986 218.083" stroke="#1D1F22" stroke-width="5" stroke-linecap="round"/>
<path d="M280.432 224.805C279.801 225.465 279.045 227.858 279.271 229.777C279.376 230.669 279.963 231.299 280.578 231.643C281.193 231.987 281.946 232.002 282.648 231.753C284.092 231.243 285.038 229.838 285.559 228.522C285.815 227.877 285.457 227.112 284.827 226.535C283.395 225.221 281.317 224.988 280.026 225.08C279.45 225.12 279.219 225.9 279.413 226.282C279.607 226.664 280.28 226.816 280.667 227.258C281.055 227.701 281.136 228.429 281.582 228.11" stroke="#1D1F22" stroke-width="5" stroke-linecap="round"/>
<path d="M226.198 253.619C226.242 257.709 226.583 267.061 228.379 271.153C230.396 275.75 235.737 277.158 240.597 278.693C245.572 280.264 256.423 274.706 264.933 269.253C266.055 268.233 266.837 267.295 267.376 266.51C267.915 265.724 268.188 265.118 268.596 263.244" stroke="#1D1F22" stroke-width="5" stroke-linecap="round"/>
</svg>
